HIERARCHY
ROOT Hips
{
  OFFSET 5.84602e-005 68.8428 3.50346
  CHANNELS 6 Xposition Yposition Zposition Zrotation Xrotation Yrotation
  JOINT Spine
  {
    OFFSET 0 8.597 -4.6522
    CHANNELS 3 Zrotation Xrotation Yrotation
    JOINT Spine1
    {
      OFFSET 0 7.8454 0.4098
      CHANNELS 3 Zrotation Xrotation Yrotation
      JOINT Spine2
      {
        OFFSET 0 9.7078 -2.1609
        CHANNELS 3 Zrotation Xrotation Yrotation
        JOINT Neck
        {
          OFFSET 0 21.8761 -0.4549
          CHANNELS 3 Zrotation Xrotation Yrotation
          JOINT Head
          {
            OFFSET 0 12.3537 3.3602
            CHANNELS 3 Zrotation Xrotation Yrotation
            End Site
            {
              OFFSET 0.0001 18.9506 0.5657
            }
          }
        }
        JOINT LeftShoulder
        {
          OFFSET 2.2086 21.1115 7.2329
          CHANNELS 3 Zrotation Xrotation Yrotation
          JOINT LeftArm
          {
            OFFSET 13.1193 3.0282 -4.8998
            CHANNELS 3 Zrotation Xrotation Yrotation
            JOINT LeftForeArm
            {
              OFFSET 27.4081 -0.0973053 -0.2375
              CHANNELS 3 Zrotation Xrotation Yrotation
              JOINT LeftHand
              {
                OFFSET 22.8641 0.0662994 -0.1369
                CHANNELS 3 Zrotation Xrotation Yrotation
                JOINT LeftHandIndex1
                {
                  OFFSET 8.8614 0.775009 2.4612
                  CHANNELS 3 Zrotation Xrotation Yrotation
                  JOINT LeftHandIndex2
                  {
                    OFFSET 3.3146 -0.808304 0.5841
                    CHANNELS 3 Zrotation Xrotation Yrotation
                    JOINT LeftHandIndex3
                    {
                      OFFSET 2.2628 -0.552002 0.3989
                      CHANNELS 3 Zrotation Xrotation Yrotation
                      End Site
                      {
                        OFFSET 1.6102 -0.4807 0.2612
                      }
                    }
                  }
                }
                JOINT LeftHandMiddle1
                {
                  OFFSET 8.9937 0.895004 0.2143
                  CHANNELS 3 Zrotation Xrotation Yrotation
                  JOINT LeftHandMiddle2
                  {
                    OFFSET 4.0984 0.0113983 -0.0242
                    CHANNELS 3 Zrotation Xrotation Yrotation
                    JOINT LeftHandMiddle3
                    {
                      OFFSET 2.2716 0.00689697 -0.0138001
                      CHANNELS 3 Zrotation Xrotation Yrotation
                      End Site
                      {
                        OFFSET 2.0404 -0.1441 0.0027
                      }
                    }
                  }
                }
                JOINT LeftHandRing1
                {
                  OFFSET 8.5234 0.597198 -2.0164
                  CHANNELS 3 Zrotation Xrotation Yrotation
                  JOINT LeftHandRing2
                  {
                    OFFSET 3.7188 -0.188293 -0.2328
                    CHANNELS 3 Zrotation Xrotation Yrotation
                    JOINT LeftHandRing3
                    {
                      OFFSET 2.1191 -0.106598 -0.1332
                      CHANNELS 3 Zrotation Xrotation Yrotation
                      End Site
                      {
                        OFFSET 1.8737 -0.2304 -0.0886
                      }
                    }
                  }
                }
                JOINT LeftHandPinky1
                {
                  OFFSET 7.9094 -0.601089 -3.4825
                  CHANNELS 3 Zrotation Xrotation Yrotation
                  JOINT LeftHandPinky2
                  {
                    OFFSET 2.2874 -0.477005 -0.6314
                    CHANNELS 3 Zrotation Xrotation Yrotation
                    JOINT LeftHandPinky3
                    {
                      OFFSET 1.6774 -0.349396 -0.4633
                      CHANNELS 3 Zrotation Xrotation Yrotation
                      End Site
                      {
                        OFFSET 1.4888 -0.4091 -0.3416
                      }
                    }
                  }
                }
                JOINT LeftHandThumb1
                {
                  OFFSET 1.833 -1.3875 1.3896
                  CHANNELS 3 Zrotation Xrotation Yrotation
                  JOINT LeftHandThumb2
                  {
                    OFFSET 3.4129 -1.121 2.5732
                    CHANNELS 3 Zrotation Xrotation Yrotation
                    JOINT LeftHandThumb3
                    {
                      OFFSET 2.2474 -0.804199 1.6192
                      CHANNELS 3 Zrotation Xrotation Yrotation
                      End Site
                      {
                        OFFSET 1.6527 -0.5689 1.1317
                      }
                    }
                  }
                }
              }
            }
          }
        }
        JOINT RightShoulder
        {
          OFFSET -2.2086 21.1115 7.2329
          CHANNELS 3 Zrotation Xrotation Yrotation
          JOINT RightArm
          {
            OFFSET -13.1216 3.0287 -4.9007
            CHANNELS 3 Zrotation Xrotation Yrotation
            JOINT RightForeArm
            {
              OFFSET -27.4081 -0.0973053 -0.2375
              CHANNELS 3 Zrotation Xrotation Yrotation
              JOINT RightHand
              {
                OFFSET -22.8641 0.0664063 -0.1369
                CHANNELS 3 Zrotation Xrotation Yrotation
                JOINT RightHandIndex1
                {
                  OFFSET -8.8614 0.774994 2.4612
                  CHANNELS 3 Zrotation Xrotation Yrotation
                  JOINT RightHandIndex2
                  {
                    OFFSET -3.3146 -0.808304 0.5841
                    CHANNELS 3 Zrotation Xrotation Yrotation
                    JOINT RightHandIndex3
                    {
                      OFFSET -2.2628 -0.552002 0.3989
                      CHANNELS 3 Zrotation Xrotation Yrotation
                      End Site
                      {
                        OFFSET -1.6102 -0.4807 0.2612
                      }
                    }
                  }
                }
                JOINT RightHandMiddle1
                {
                  OFFSET -8.9937 0.894989 0.2143
                  CHANNELS 3 Zrotation Xrotation Yrotation
                  JOINT RightHandMiddle2
                  {
                    OFFSET -4.0984 0.0113983 -0.0242
                    CHANNELS 3 Zrotation Xrotation Yrotation
                    JOINT RightHandMiddle3
                    {
                      OFFSET -2.2716 0.00691223 -0.0138001
                      CHANNELS 3 Zrotation Xrotation Yrotation
                      End Site
                      {
                        OFFSET -2.0404 -0.1441 0.0027
                      }
                    }
                  }
                }
                JOINT RightHandRing1
                {
                  OFFSET -8.5234 0.597198 -2.0164
                  CHANNELS 3 Zrotation Xrotation Yrotation
                  JOINT RightHandRing2
                  {
                    OFFSET -3.7188 -0.188309 -0.2328
                    CHANNELS 3 Zrotation Xrotation Yrotation
                    JOINT RightHandRing3
                    {
                      OFFSET -2.1191 -0.106598 -0.1332
                      CHANNELS 3 Zrotation Xrotation Yrotation
                      End Site
                      {
                        OFFSET -1.8737 -0.2304 -0.0886
                      }
                    }
                  }
                }
                JOINT RightHandPinky1
                {
                  OFFSET -7.9094 -0.601105 -3.4825
                  CHANNELS 3 Zrotation Xrotation Yrotation
                  JOINT RightHandPinky2
                  {
                    OFFSET -2.2874 -0.477005 -0.6314
                    CHANNELS 3 Zrotation Xrotation Yrotation
                    JOINT RightHandPinky3
                    {
                      OFFSET -1.6774 -0.349396 -0.4633
                      CHANNELS 3 Zrotation Xrotation Yrotation
                      End Site
                      {
                        OFFSET -1.4888 -0.4091 -0.3416
                      }
                    }
                  }
                }
                JOINT RightHandThumb1
                {
                  OFFSET -1.833 -1.38751 1.3896
                  CHANNELS 3 Zrotation Xrotation Yrotation
                  JOINT RightHandThumb2
                  {
                    OFFSET -3.41299 -1.12099 2.5732
                    CHANNELS 3 Zrotation Xrotation Yrotation
                    JOINT RightHandThumb3
                    {
                      OFFSET -2.24741 -0.804108 1.6192
                      CHANNELS 3 Zrotation Xrotation Yrotation
                      End Site
                      {
                        OFFSET -1.6527 -0.5689 1.1317
                      }
                    }
                  }
                }
              }
            }
          }
        }
      }
    }
  }
  JOINT RightUpLeg
  {
    OFFSET -9.1966 3.8861 -0.7581
    CHANNELS 3 Zrotation Xrotation Yrotation
    JOINT RightLeg
    {
      OFFSET -0.7359 -41.0265 0
      CHANNELS 3 Zrotation Xrotation Yrotation
      JOINT RightFoot
      {
        OFFSET 0 -40.2855 0
        CHANNELS 3 Zrotation Xrotation Yrotation
        JOINT RightToeBase
        {
          OFFSET 0 -5.6122 11.7359
          CHANNELS 3 Zrotation Xrotation Yrotation
          End Site
          {
            OFFSET 0 0 7.8731
          }
        }
      }
    }
  }
  JOINT LeftUpLeg
  {
    OFFSET 9.1965 3.8864 -0.7581
    CHANNELS 3 Zrotation Xrotation Yrotation
    JOINT LeftLeg
    {
      OFFSET 0.7359 -41.0268 0
      CHANNELS 3 Zrotation Xrotation Yrotation
      JOINT LeftFoot
      {
        OFFSET 0 -40.2855 0
        CHANNELS 3 Zrotation Xrotation Yrotation
        JOINT LeftToeBase
        {
          OFFSET 0 -5.6122 11.7359
          CHANNELS 3 Zrotation Xrotation Yrotation
          End Site
          {
            OFFSET 0 0 7.8731
          }
        }
      }
    }
  }
}
MOTION
Frames:	5
Frame Time:	0.0333333
5.84602e-005 68.8428 3.50346 0 0 -0 0 0 -0 0 0 -0 0 0 -0 0 0 -0 0 0 -0 0 0 -0 0 0 -0 0 0 -0 0 0 -0 0 0 -0 0 0 -0 0 0 -0 0 0 -0 -0.0146107 -8.87603e-005 -2.63497e-007 2.99804e-018 -2.42657e-020 -1.42182e-022 0 0 -0 -0.0187562 -0.001176 5.858e-005 5.06224e-018 3.88251e-019 1.21329e-020 0 0 -0 -0.012269 -0.00324817 0.000675346 -1.74678e-018 3.88251e-019 -0 0 0 -0 0 0 -0 0 0 -0 0 0 -0 0 0 -0 0 0 -0 0 0 -0 0 0 -0 0 0 -0 0 0 -0 0 0 -0 0.0149955 -9.10982e-005 2.64101e-007 -9.69331e-018 1.21329e-020 -4.7394e-023 0 0 -0 0.0189956 -0.00119102 -5.96516e-005 -5.41541e-019 0 2.42657e-020 0 0 -0 0.0122698 -0.00324857 -0.000673756 -2.00796e-019 0 -1.94126e-019 0 0 -0 0 0 -0 0 0 -0 3.39842 1.33031 -0.0637918 -5.65207e-008 0.834868 -0.000436188 -3.39935 -2.16518 -0.0642563 -8.89002e-024 -1.18485e-023 -1.48106e-024 -3.39844 1.35642 0.0640283 -3.18788e-007 0.782166 -0.000588827 3.39931 -2.13858 0.0634662 1.1399e-023 0 -0 
22.1816 -4.6658 12.4894 105.415 -4.35277 164.598 -1.50378e-006 20.7994 5.975e-006 5.51158e-006 41.5988 8.01007e-006 1.06923e-005 41.5988 5.00229e-007 0.00012974 30.9993 -0.000111957 -2.69036e-006 -35.0004 1.6839e-005 -3.29955e-007 -9.57483e-006 -3.94364e-006 -46.0183 -0.993251 -91.748 -15.4753 13.7574 -145.014 43.975 29.7501 8.06817 -1.48336e-007 4.62242e-008 4.53491e-008 5.61262e-006 -1.13155e-006 -2.25565e-006 1.12113e-006 -1.12461e-006 -5.49105e-007 -1.48336e-007 4.62242e-008 4.53491e-008 -0.014593 -8.85649e-005 -6.27468e-006 9.7416e-007 -1.07831e-006 -5.03893e-007 -1.48336e-007 4.62242e-008 4.53491e-008 -0.0187646 -0.00118281 5.69759e-005 1.12118e-006 -1.12451e-006 -5.49301e-007 -1.48336e-007 4.62242e-008 4.53491e-008 -0.012246 -0.00324453 0.00067377 1.12115e-006 -1.12455e-006 -5.49259e-007 -1.48336e-007 4.62242e-008 4.53491e-008 5.61262e-006 -1.13155e-006 -2.25565e-006 1.12113e-006 -1.12461e-006 -5.49105e-007 8.25995 3.72197 17.8076 47.9638 17.0887 57.8223 4.86578 1.51432 5.9787 41.339 0.9365 -20.0038 -4.77053e-007 -6.23577e-007 -3.2488e-006 4.57876e-006 -4.84523e-006 -5.13571e-006 -4.77053e-007 -6.23577e-007 -3.2488e-006 -4.77053e-007 -6.23577e-007 -3.2488e-006 0.0149639 -9.95682e-005 -5.1048e-006 -4.77296e-007 -6.23999e-007 -3.24872e-006 -4.77053e-007 -6.23577e-007 -3.2488e-006 0.0190286 -0.00119461 -6.63134e-005 -4.77393e-007 -6.24097e-007 -3.24869e-006 -4.77053e-007 -6.23577e-007 -3.2488e-006 0.0122545 -0.00324534 -0.000677988 -4.77338e-007 -6.23875e-007 -3.24871e-006 -4.77053e-007 -6.23577e-007 -3.2488e-006 4.57876e-006 -4.84523e-006 -5.13571e-006 -4.77053e-007 -6.23577e-007 -3.2488e-006 -69.8227 -27.3316 -36.5104 179.967 43.0595 173.324 -2.47217 17.4543 -4.08643 2.00668e-006 2.85727e-006 -4.89105e-007 14.6123 11.1027 17.7168 -13.7941 68.0838 14.3978 1.69637 -0.266505 0.0266961 2.43514e-007 3.70952e-006 3.88032e-008 
22.1833 -4.66869 12.1828 105.415 -4.35275 164.598 3.28366e-005 20.7994 2.34684e-006 -1.28676e-005 41.5988 -1.65624e-005 1.13448e-005 41.5988 7.18508e-006 -2.75055e-005 30.9994 2.75555e-005 -8.41482e-007 -35.0004 -9.63108e-006 -1.61063e-005 -2.57399e-006 -5.68393e-006 -46.0183 -0.993232 -91.748 -15.4753 13.7574 -145.014 43.975 29.7501 8.06816 -2.24227e-006 2.24921e-006 1.09821e-006 -3.37035e-006 -1.11766e-006 1.15744e-006 -1.12113e-006 1.12461e-006 5.49105e-007 -2.24227e-006 2.24921e-006 1.09821e-006 -0.0145952 -8.73881e-005 -1.33373e-007 -1.26819e-006 1.17076e-006 5.94604e-007 -2.24227e-006 2.24921e-006 1.09821e-006 -0.0187511 -0.00117488 5.79243e-005 -1.12118e-006 1.12451e-006 5.49301e-007 -2.24227e-006 2.24921e-006 1.09821e-006 -0.0122472 -0.00324443 0.000679408 -1.12115e-006 1.12455e-006 5.49259e-007 -2.24227e-006 2.24921e-006 1.09821e-006 -3.37035e-006 -1.11766e-006 1.15744e-006 -1.12113e-006 1.12461e-006 5.49105e-007 8.25995 3.72199 17.8076 47.9637 17.0887 57.8223 4.89343 1.42283 4.90733 41.339 0.936494 -20.0038 -4.23728e-007 5.84082e-007 -4.47892e-007 4.23728e-007 -5.84082e-007 4.47892e-007 -4.23728e-007 5.84082e-007 -4.47892e-007 -4.23728e-007 5.84082e-007 -4.47892e-007 0.0149381 -9.20398e-005 -6.45982e-006 -4.23739e-007 5.84024e-007 -4.47968e-007 -4.23728e-007 5.84082e-007 -4.47892e-007 0.0189756 -0.00119346 -6.12668e-005 -4.23747e-007 5.84009e-007 -4.47984e-007 -4.23728e-007 5.84082e-007 -4.47892e-007 0.0122724 -0.00324425 -0.000664163 -4.23753e-007 5.84034e-007 -4.47942e-007 -4.23728e-007 5.84082e-007 -4.47892e-007 4.23728e-007 -5.84082e-007 4.47892e-007 -4.23728e-007 5.84082e-007 -4.47892e-007 -69.9789 -27.4277 -36.8286 179.974 43.0622 173.331 -2.46975 17.4532 -4.08223 -1.54425e-006 3.78225e-006 6.11236e-007 14.2332 11.7701 18.0858 -13.2732 67.158 13.7938 1.70215 -0.27334 0.0268075 -6.02853e-007 -1.27821e-006 3.97641e-007 
22.185 -4.6716 11.8761 105.415 -4.35275 164.598 1.39203e-005 20.7994 -4.55428e-006 -6.87378e-006 41.5988 -1.92457e-005 1.46417e-005 41.5988 3.2593e-006 -0.000105673 30.9991 5.63598e-005 -1.73403e-006 -35.0004 -3.66236e-006 -1.61063e-005 -2.57399e-006 -5.68393e-006 -46.0183 -0.993228 -91.748 -15.4753 13.7575 -145.014 43.975 29.7501 8.06816 -2.39061e-006 2.29544e-006 1.14356e-006 -3.22201e-006 -1.16389e-006 1.1121e-006 -1.12113e-006 1.12461e-006 5.49105e-007 -2.39061e-006 2.29544e-006 1.14356e-006 -0.0146143 -9.07243e-005 6.75372e-006 -1.26818e-006 1.17076e-006 5.94601e-007 -2.39061e-006 2.29544e-006 1.14356e-006 -0.0187645 -0.0011749 6.30013e-005 -1.12118e-006 1.12451e-006 5.49301e-007 -2.39061e-006 2.29544e-006 1.14356e-006 -0.0122504 -0.0032411 0.000681013 -1.26837e-006 1.17106e-006 5.94552e-007 -2.39061e-006 2.29544e-006 1.14356e-006 -3.22201e-006 -1.16389e-006 1.1121e-006 -1.12113e-006 1.12461e-006 5.49105e-007 8.25995 3.72199 17.8076 47.9638 17.0887 57.8223 4.91939 1.33073 3.83503 41.3391 0.936498 -20.0038 3.18055e-015 -4.77083e-015 3.18055e-015 -3.53113e-031 -3.18055e-015 -6.36111e-015 8.61069e-007 -1.16141e-006 8.92294e-007 3.18055e-015 -4.77083e-015 3.18055e-015 0.01497 -9.02495e-005 1.7582e-006 8.61092e-007 -1.1613e-006 8.92445e-007 3.18055e-015 -4.77083e-015 3.18055e-015 0.0189506 -0.00119387 -6.06684e-005 8.61107e-007 -1.16127e-006 8.92477e-007 3.18055e-015 -4.77083e-015 3.18055e-015 0.0122446 -0.00324191 -0.000669642 8.61119e-007 -1.16132e-006 8.92393e-007 3.18055e-015 -4.77083e-015 3.18055e-015 -3.53113e-031 -3.18055e-015 -6.36111e-015 8.61069e-007 -1.16141e-006 8.92294e-007 -70.1322 -27.5278 -37.1457 179.975 43.063 173.338 -2.46734 17.4521 -4.07804 6.28001e-007 1.93091e-006 -2.12448e-007 13.8483 12.4349 18.4611 -12.7949 66.2304 13.2326 1.70822 -0.280755 0.0269356 5.51738e-033 1.59028e-015 -1.98785e-016 
22.1868 -4.67453 11.5695 105.415 -4.35275 164.598 1.39203e-005 20.7994 -4.55428e-006 -6.87378e-006 41.5988 -1.92457e-005 1.46417e-005 41.5988 3.2593e-006 -0.000105673 30.9991 5.63598e-005 -1.73403e-006 -35.0004 -3.66236e-006 -1.61063e-005 -2.57399e-006 -5.68393e-006 -46.0183 -0.993228 -91.748 -15.4753 13.7574 -145.014 43.975 29.7501 8.06817 -2.24227e-006 2.24921e-006 1.09821e-006 -2.24921e-006 -2.24227e-006 6.08339e-007 -1.12113e-006 1.12461e-006 5.49105e-007 -2.24227e-006 2.24921e-006 1.09821e-006 -0.0146223 -8.96903e-005 -4.75794e-007 -1.12117e-006 1.12454e-006 5.4925e-007 -2.24227e-006 2.24921e-006 1.09821e-006 -0.0187635 -0.00117598 6.24991e-005 -1.12118e-006 1.12451e-006 5.49301e-007 -2.24227e-006 2.24921e-006 1.09821e-006 -0.0122472 -0.00324546 0.000684504 -1.12114e-006 1.12455e-006 5.49259e-007 -2.24227e-006 2.24921e-006 1.09821e-006 -2.24921e-006 -2.24227e-006 6.08339e-007 -1.12113e-006 1.12461e-006 5.49105e-007 8.25995 3.72199 17.8076 47.9638 17.0887 57.8223 4.94365 1.2381 2.76192 41.339 0.936494 -20.0038 3.18055e-015 0 3.18055e-015 4.37309e-007 -5.77277e-007 4.44361e-007 -4.37309e-007 5.77277e-007 -4.44361e-007 3.18055e-015 0 3.18055e-015 0.0150227 -9.05392e-005 -1.35282e-006 -4.3732e-007 5.77219e-007 -4.44437e-007 3.18055e-015 0 3.18055e-015 0.019027 -0.00119257 -6.64272e-005 -4.37327e-007 5.77204e-007 -4.44452e-007 3.18055e-015 0 3.18055e-015 0.0123235 -0.0032584 -0.000676448 -1.29334e-006 1.47513e-007 8.95444e-007 3.18055e-015 0 3.18055e-015 4.37309e-007 -5.77277e-007 4.44361e-007 -4.37309e-007 5.77277e-007 -4.44361e-007 -70.2782 -27.6378 -37.4595 179.963 43.0597 173.345 -2.46487 17.4512 -4.07382 -1.53128e-006 -2.77359e-006 2.08224e-006 13.4576 13.0972 18.8427 -12.3549 65.3012 12.7096 1.71461 -0.28868 0.0270545 3.06124e-006 7.59328e-008 -3.72547e-006 
